<svg xmlns="http://www.w3.org/2000/svg" xmlns:xlink="http://www.w3.org/1999/xlink" width="458" height="411">
  <defs>
    <path id="a" d="M0 0h484v411H0z"/>
    <linearGradient id="c" x1="24.379%" x2="84.171%" y1="5.536%" y2="97.907%">
      <stop offset="0%" stop-color="#76E1FF"/>
      <stop offset="100%" stop-color="#637BFF" stop-opacity="0"/>
    </linearGradient>
    <radialGradient id="d" cx="52.436%" cy="42.955%" r="209.206%" fx="52.436%" fy="42.955%" gradientTransform="matrix(-.17262 0 0 -.21136 .615 .52)">
      <stop offset="0%"/>
      <stop offset="100%" stop-opacity="0"/>
    </radialGradient>
    <linearGradient id="e" x1="45.117%" x2="0%" y1="168.048%" y2="5.569%">
      <stop offset="0%" stop-color="#C4D6EB" stop-opacity=".676"/>
      <stop offset="100%" stop-color="#91ACD2" stop-opacity=".3"/>
    </linearGradient>
    <linearGradient id="f" x1="4.47%" x2="117.825%" y1="0%" y2="133.334%">
      <stop offset="0%" stop-color="#5B79A2"/>
      <stop offset="100%" stop-color="#2E4469"/>
    </linearGradient>
    <linearGradient id="g" x1="50%" x2="50%" y1="0%" y2="50.445%">
      <stop offset="0%" stop-opacity="0"/>
      <stop offset="100%" stop-opacity=".372"/>
    </linearGradient>
    <filter id="h" width="182.6%" height="186.1%" x="-41.3%" y="-43%" filterUnits="objectBoundingBox">
      <feGaussianBlur in="SourceGraphic" stdDeviation="6.93"/>
    </filter>
    <linearGradient id="i" x1="50%" x2="50%" y1="0%" y2="100%">
      <stop offset="0%" stop-color="#5B79A2"/>
      <stop offset="100%" stop-color="#2E4469"/>
    </linearGradient>
    <linearGradient id="j" x1="-24.308%" y1="-161.748%" y2="17.569%">
      <stop offset="0%" stop-color="#5B79A2"/>
      <stop offset="100%" stop-color="#2E4469"/>
    </linearGradient>
    <linearGradient id="k" x1="50%" x2="50%" y1="0%" y2="97.483%">
      <stop offset="0%" stop-color="#21C8F6"/>
      <stop offset="100%" stop-color="#637BFF"/>
    </linearGradient>
    <linearGradient id="l" x1="12.205%" x2="108.596%" y1="0%" y2="100%">
      <stop offset="0%" stop-color="#80A4D5"/>
      <stop offset="100%" stop-color="#2E4469"/>
    </linearGradient>
    <linearGradient id="m" x1="12.205%" x2="108.596%" y1="0%" y2="100%">
      <stop offset="0%" stop-color="#5B79A2"/>
      <stop offset="100%" stop-color="#2E4469"/>
    </linearGradient>
    <path id="n" d="M317.313 173.122c0-11.072-4.526-21.093-11.839-28.331a40.167 40.167 0 0 0-28.345-11.638"/>
    <linearGradient id="o" x1="83.974%" x2="11.269%" y1="65.221%" y2="-6.398%">
      <stop offset="0%" stop-color="#21C8F6" stop-opacity="0"/>
      <stop offset="100%" stop-color="#637BFF"/>
    </linearGradient>
    <filter id="p" width="278.8%" height="279.8%" x="-89.4%" y="-89.9%" filterUnits="objectBoundingBox">
      <feGaussianBlur in="SourceGraphic" stdDeviation="13.86"/>
    </filter>
  </defs>
  <g fill="none" fill-rule="evenodd">
    <mask id="b" fill="#fff">
      <use xlink:href="#a"/>
    </mask>
    <g mask="url(#b)">
      <g stroke="url(#c)" stroke-width="3.6" opacity=".2" transform="rotate(-150 226.715 149.98)">
        <path d="M117 267v-71.471H69.878v-60.485H32.615v-38.85H0V0m224.585 267v-71.471l38.813 2.95v-63.435H202v-38.85h132V0M184 272v-71.888l-14.826-.474v-63.805H150.25V96.756H94V0m323 272v-71.888l-15.021-.474v-63.805h-19.175V96.756H368V0M125.667 7v276.713"/>
        <path d="M316 7v147.158h-29V284M45.667 7v276.713"/>
      </g>
      <g transform="rotate(28 197.051 64.16)">
        <ellipse cx="294.381" cy="469.438" fill="url(#d)" opacity=".523" rx="281.319" ry="48.563"/>
        <rect width="50.34" height="120.667" x="273.028" y="178.225" fill="#2E4469" stroke="url(#e)" stroke-width="4.95" rx="20.79"/>
        <rect width="45.29" height="28.549" x="275.553" y="189.625" fill="#22385D" rx="13.86"/>
        <rect width="384.622" height="125.617" x="110.709" y="337.625" fill="#4E6A92" rx="20.79"/>
        <rect width="384.622" height="85.648" x="110.709" y="333" fill="#22385D" rx="20.79"/>
        <rect width="424.806" height="165.586" x="92.11" y="240.5" fill="url(#f)" rx="20.79"/>
        <path fill="url(#g)" d="M96.76 284.76v-16.51l50.344 29.62-6.714 18.688z" filter="url(#h)" opacity=".5"/>
        <ellipse cx="193.834" cy="323.179" fill="url(#i)" stroke="#2E4469" stroke-width="13.86" rx="45.925" ry="45.679"/>
        <ellipse cx="299.031" cy="330.688" fill="url(#j)" stroke="#2E4469" stroke-width="6.93" rx="25.574" ry="25.438"/>
        <ellipse cx="373.429" cy="330.688" fill="url(#j)" stroke="#2E4469" stroke-width="6.93" rx="25.574" ry="25.438"/>
        <ellipse cx="447.828" cy="330.688" fill="url(#j)" stroke="#2E4469" stroke-width="6.93" rx="25.574" ry="25.438"/>
        <path stroke="url(#k)" stroke-width="6.93" d="M193.834 368.858c25.363 0 45.925-20.451 45.925-45.679S219.197 277.5 193.834 277.5c-25.364 0-45.925 20.451-45.925 45.679" transform="rotate(-90 193.834 323.179)"/>
        <path fill="url(#l)" d="M513.378 249.685a20.693 20.693 0 0 0-11.511-3.475H118.64c-11.482 0-20.79 9.308-20.79 20.79v124.006c0 4.298 1.304 8.29 3.538 11.605-5.593-3.726-9.278-10.09-9.278-17.315V261.29c0-11.482 9.308-20.79 20.79-20.79h383.226c7.185 0 13.518 3.644 17.252 9.185z"/>
        <rect width="183.7" height="199.846" x="203.707" fill="url(#m)" rx="62.37"/>
        <path fill="url(#l)" d="M345.808 3.542a62.87 62.87 0 0 0-9.29-.687h-58.96c-34.445 0-62.37 27.924-62.37 62.37v77.961c0 22.187 11.586 41.668 29.037 52.724-23.668-8.854-40.518-31.677-40.518-58.434V62.37c0-34.446 27.924-62.37 62.37-62.37h58.96a62.27 62.27 0 0 1 20.77 3.542z" opacity=".5"/>
        <ellipse cx="238.553" cy="67.034" fill="url(#i)" stroke="#2E4469" stroke-width="13.86" rx="48.795" ry="48.534"/>
        <path fill="#FFF" fill-opacity=".1" d="M209.877 97.353c-9.441-7.668-15.47-19.338-15.47-32.408 0-23.096 18.825-41.82 42.046-41.82 13.14 0 24.873 5.996 32.583 15.386A42.01 42.01 0 0 0 242.46 29.1c-23.221 0-42.046 18.724-42.046 41.82 0 10.027 3.548 19.23 9.463 26.434z"/>
        <ellipse cx="272.352" cy="55.275" fill="url(#k)" stroke="#2E4469" stroke-width="6.93" rx="14.352" ry="14.275"/>
        <path fill="#FFF" fill-opacity=".2" d="M265.244 64c-2.577-1.926-4.244-4.992-4.244-8.445C261 49.725 265.751 45 271.612 45c3.472 0 6.554 1.658 8.49 4.222a10.603 10.603 0 0 0-6.367-2.11c-5.861 0-10.613 4.725-10.613 10.554 0 2.377.79 4.57 2.122 6.334z"/>
        <ellipse cx="336.573" cy="60.404" fill="url(#i)" stroke="#2E4469" stroke-width="13.86" rx="31.573" ry="31.404"/>
        <path fill="#FFF" fill-opacity=".1" d="M319.52 79.679c-5.81-4.72-9.52-11.9-9.52-19.943C310 45.522 321.584 34 335.874 34c8.086 0 15.306 3.69 20.051 9.469a25.852 25.852 0 0 0-16.355-5.792c-14.29 0-25.874 11.522-25.874 25.735 0 6.17 2.184 11.834 5.824 16.267z"/>
        <ellipse cx="347.352" cy="48.275" fill="url(#k)" stroke="#2E4469" stroke-width="6.93" rx="14.352" ry="14.275"/>
        <path fill="#FFF" fill-opacity=".2" d="M339.464 56.985c-2.71-2.026-4.464-5.25-4.464-8.883C335 41.971 339.997 37 346.162 37c3.652 0 6.894 1.744 8.93 4.44a11.152 11.152 0 0 0-6.698-2.22c-6.164 0-11.162 4.971-11.162 11.103 0 2.5.83 4.806 2.232 6.662z"/>
        <g stroke-linecap="round" transform="rotate(135 297.22 153.137)">
          <use stroke="#2E4469" stroke-width="27.72" xlink:href="#n"/>
          <use stroke="url(#k)" stroke-width="6.93" xlink:href="#n"/>
        </g>
        <path stroke="url(#o)" stroke-linejoin="round" stroke-width="8.1" d="M519.013 358.22l63.51-55-36.719-12.58-23.048-138.015H389.704"/>
        <rect width="18.6" height="41.625" x="380.404" y="129.5" fill="url(#k)" rx="9.3" transform="matrix(-1 0 0 1 779.408 0)"/>
        <ellipse cx="545.476" cy="289.063" fill="url(#k)" rx="11.625" ry="11.563"/>
        <path fill="#FFF" fill-opacity=".2" d="M537.984 296a10.244 10.244 0 0 1-4.133-8.222c0-5.677 4.626-10.278 10.333-10.278a10.34 10.34 0 0 1 8.267 4.11 10.324 10.324 0 0 0-6.2-2.054c-5.707 0-10.333 4.6-10.333 10.277 0 2.314.768 4.45 2.066 6.167z"/>
        <ellipse cx="522.226" cy="154.938" fill="url(#k)" rx="16.275" ry="16.188"/>
        <path fill="#FFF" fill-opacity=".2" d="M512.15 166.5c-3.764-2.813-6.198-7.29-6.198-12.334 0-8.514 6.939-15.416 15.499-15.416 5.07 0 9.572 2.422 12.4 6.166a15.485 15.485 0 0 0-9.3-3.083c-8.56 0-15.5 6.902-15.5 15.417 0 3.47 1.154 6.673 3.1 9.25z"/>
        <path stroke="url(#k)" stroke-linejoin="round" stroke-width="13.86" d="M107.559 419.161l-96.617-76.738 48.798-97.298 120.517 70.2"/>
        <ellipse cx="192.083" cy="326.063" stroke="url(#k)" stroke-width="6.93" rx="16.275" ry="16.188"/>
        <ellipse cx="189.758" cy="323.75" fill="url(#k)" filter="url(#p)" rx="23.25" ry="23.125"/>
        <path fill="#FFF" fill-opacity=".2" d="M182.007 337.625c-3.764-2.813-6.199-7.29-6.199-12.334 0-8.514 6.94-15.416 15.5-15.416 5.07 0 9.572 2.422 12.4 6.166a15.485 15.485 0 0 0-9.3-3.083c-8.56 0-15.5 6.902-15.5 15.417a15.29 15.29 0 0 0 3.1 9.25z"/>
        <ellipse cx="57.235" cy="247.438" fill="url(#k)" rx="16.275" ry="16.188"/>
        <path fill="#FFF" fill-opacity=".2" d="M47.16 259c-3.764-2.813-6.2-7.29-6.2-12.334 0-8.514 6.94-15.416 15.5-15.416 5.07 0 9.572 2.422 12.4 6.166a15.485 15.485 0 0 0-9.3-3.083c-8.56 0-15.5 6.902-15.5 15.417 0 3.47 1.154 6.673 3.1 9.25z"/>
      </g>
    </g>
  </g>
</svg>
