<svg width="1764" height="1351" viewBox="0 0 1764 1351" xmlns="http://www.w3.org/2000/svg" xmlns:xlink="http://www.w3.org/1999/xlink"><title>star-bg</title><defs><path id="a" d="M6.23.067V5.69H.61V.066h5.62z"/><path id="c" d="M.67.697h9.937v9.938H.67z"/><path id="e" d="M6.23.067V5.69H.61V.066h5.62z"/></defs><g fill="none" fill-rule="evenodd"><path d="M717.978 92.117l2.756 1.507a.394.394 0 0 1 0 .69l-2.756 1.508a.4.4 0 0 0-.156.156l-1.507 2.756a.393.393 0 0 1-.69 0l-1.508-2.755a.395.395 0 0 0-.157-.16l-2.755-1.505a.394.394 0 0 1 0-.69l2.755-1.508a.393.393 0 0 0 .157-.157l1.507-2.754a.393.393 0 0 1 .69 0l1.508 2.754c.036.067.09.12.156.157" fill="#D15D64" style="mix-blend-mode:lighten"/><path d="M239.057 166.72l1.36.745a.395.395 0 0 1 0 .692l-1.36.743a.4.4 0 0 0-.156.157l-.743 1.36a.394.394 0 0 1-.692 0l-.743-1.36a.395.395 0 0 0-.157-.157l-1.36-.743a.395.395 0 0 1 0-.692l1.36-.744a.393.393 0 0 0 .157-.155l.743-1.36a.395.395 0 0 1 .692 0l.744 1.36c.037.066.092.12.157.156" fill="#FCD05C" style="mix-blend-mode:lighten"/><path d="M409.472 108L408 109.47M413.47 104l-1.47 1.472M409.543 108.163a1.852 1.852 0 1 0 2.62-2.62 1.852 1.852 0 1 0-2.62 2.62z" stroke="#7B63AB" stroke-width="1.097" stroke-linecap="round" stroke-linejoin="round"/><path d="M961.978 138.117l2.756 1.507a.394.394 0 0 1 0 .69l-2.756 1.507a.4.4 0 0 0-.156.16l-1.507 2.754a.393.393 0 0 1-.69 0l-1.508-2.756a.395.395 0 0 0-.157-.157l-2.755-1.505a.394.394 0 0 1 0-.69l2.755-1.508a.393.393 0 0 0 .157-.156l1.507-2.755a.393.393 0 0 1 .69 0l1.508 2.755c.036.066.09.12.156.156" fill="#D15D64" style="mix-blend-mode:lighten"/><path d="M1144.978 177.117l2.755 1.507a.394.394 0 0 1 0 .69l-2.755 1.508a.397.397 0 0 0-.156.156l-1.506 2.756a.393.393 0 0 1-.692 0l-1.506-2.756a.402.402 0 0 0-.16-.156l-2.753-1.507a.393.393 0 0 1 0-.69l2.755-1.508a.402.402 0 0 0 .158-.156l1.506-2.755a.394.394 0 0 1 .69 0l1.508 2.756c.037.066.09.12.157.157" fill="#E98333" style="mix-blend-mode:lighten"/><path d="M1083.057 100.72l1.36.745a.395.395 0 0 1 0 .692l-1.36.743a.4.4 0 0 0-.156.157l-.743 1.36a.394.394 0 0 1-.692 0l-.743-1.36a.395.395 0 0 0-.157-.157l-1.36-.743a.395.395 0 0 1 0-.692l1.36-.744a.393.393 0 0 0 .157-.155l.743-1.36a.395.395 0 0 1 .692 0l.744 1.36c.037.066.092.12.157.156" fill="#FCD05C" style="mix-blend-mode:lighten"/><path d="M1206.813 253.907a2.907 2.907 0 1 1-5.815-.003 2.907 2.907 0 0 1 5.815.003M114.978 319.116l2.756 1.507a.394.394 0 0 1 0 .692l-2.756 1.507a.4.4 0 0 0-.156.156l-1.507 2.755a.393.393 0 0 1-.69 0l-1.508-2.755a.395.395 0 0 0-.157-.156l-2.755-1.507a.394.394 0 0 1 0-.692l2.755-1.507a.393.393 0 0 0 .157-.155l1.507-2.755a.393.393 0 0 1 .69 0l1.508 2.756c.036.067.09.12.156.156" fill="#D15D64" style="mix-blend-mode:lighten"/><path d="M206.057 452.72l1.36.745a.395.395 0 0 1 0 .692l-1.36.743a.4.4 0 0 0-.156.157l-.743 1.36a.394.394 0 0 1-.692 0l-.743-1.36a.395.395 0 0 0-.157-.157l-1.36-.743a.395.395 0 0 1 0-.692l1.36-.744a.393.393 0 0 0 .157-.155l.743-1.36a.395.395 0 0 1 .692 0l.744 1.36c.037.066.092.12.157.156" fill="#FCD05C" style="mix-blend-mode:lighten"/><path d="M1661.978 527.116l2.755 1.508a.395.395 0 0 1 0 .692l-2.755 1.506a.39.39 0 0 0-.156.157l-1.506 2.754a.393.393 0 0 1-.692 0l-1.506-2.755a.39.39 0 0 0-.16-.158l-2.753-1.506a.394.394 0 0 1 0-.692l2.755-1.508a.39.39 0 0 0 .158-.155l1.506-2.755a.393.393 0 0 1 .69 0l1.508 2.755a.39.39 0 0 0 .157.156M1376.877 100.645l1.3.71c.26.144.26.52 0 .66l-1.3.713a.38.38 0 0 0-.15.148l-.71 1.3a.377.377 0 0 1-.66 0l-.71-1.3a.386.386 0 0 0-.152-.148l-1.3-.712a.377.377 0 0 1 0-.66l1.3-.71a.39.39 0 0 0 .15-.15l.71-1.3a.376.376 0 0 1 .662 0l.71 1.3a.384.384 0 0 0 .15.15" fill="#D15D64" style="mix-blend-mode:lighten"/><path d="M1634.057 382.72l1.36.745a.395.395 0 0 1 0 .692l-1.36.743a.4.4 0 0 0-.156.157l-.743 1.36a.394.394 0 0 1-.692 0l-.743-1.36a.395.395 0 0 0-.157-.157l-1.36-.743a.395.395 0 0 1 0-.692l1.36-.744a.393.393 0 0 0 .157-.155l.743-1.36a.395.395 0 0 1 .692 0l.744 1.36c.037.066.092.12.157.156" fill="#FCD05C" style="mix-blend-mode:lighten"/><path stroke="#E98333" stroke-width="1.097" stroke-linecap="round" stroke-linejoin="round" d="M411 385.888l3.554-.888-.887 3.554z"/><path fill="#00A959" style="mix-blend-mode:lighten" d="M522.226 503.018l2.018 1.104-2.018 1.103-1.104 2.018-1.104-2.018-2.018-1.103 2.018-1.104 1.104-2.018z"/><path d="M530.98 40.117l2.754 1.507a.394.394 0 0 1 0 .69l-2.755 1.508a.397.397 0 0 0-.158.156l-1.506 2.756a.393.393 0 0 1-.692 0l-1.507-2.756a.402.402 0 0 0-.157-.156l-2.755-1.507a.393.393 0 0 1 0-.69l2.755-1.508a.402.402 0 0 0 .157-.156l1.508-2.755a.394.394 0 0 1 .69 0l1.507 2.756c.037.066.09.12.157.157" fill="#E98333" style="mix-blend-mode:lighten"/><path d="M653.86 202.256l-.847-1.6a.44.44 0 0 0-.18-.18l-1.6-.848a.434.434 0 0 1 0-.768l1.6-.847a.442.442 0 0 0 .18-.18l.847-1.6a.435.435 0 0 1 .77 0l.845 1.6a.44.44 0 0 0 .18.18l1.6.847c.31.163.31.605 0 .768l-1.6.847a.436.436 0 0 0-.18.18l-.846 1.6a.435.435 0 0 1-.77 0z" stroke="#7B63AB" stroke-width="1.097" stroke-linecap="round" stroke-linejoin="round"/><path d="M593.978 161.117l2.756 1.507a.394.394 0 0 1 0 .69l-2.756 1.507a.4.4 0 0 0-.156.16l-1.507 2.754a.393.393 0 0 1-.69 0l-1.508-2.756a.395.395 0 0 0-.157-.157l-2.755-1.505a.394.394 0 0 1 0-.69l2.755-1.508a.393.393 0 0 0 .157-.156l1.507-2.755a.393.393 0 0 1 .69 0l1.508 2.755c.036.066.09.12.156.156" fill="#D15D64" style="mix-blend-mode:lighten"/><path d="M177.98 127.117l2.754 1.507a.394.394 0 0 1 0 .69l-2.756 1.508a.397.397 0 0 0-.156.156l-1.507 2.756a.393.393 0 0 1-.69 0l-1.507-2.756a.402.402 0 0 0-.16-.156l-2.752-1.507a.393.393 0 0 1 0-.69l2.754-1.508a.402.402 0 0 0 .157-.156l1.508-2.755a.394.394 0 0 1 .69 0l1.507 2.756c.036.066.09.12.156.157" fill="#E98333" style="mix-blend-mode:lighten"/><path d="M299.813 56.907a2.907 2.907 0 1 1-5.815-.003 2.907 2.907 0 0 1 5.815.003" fill="#D15D64" style="mix-blend-mode:lighten"/><path d="M50.86 205.256l-.847-1.6a.44.44 0 0 0-.18-.18l-1.6-.848a.434.434 0 0 1 0-.768l1.6-.847a.442.442 0 0 0 .18-.18l.847-1.6a.435.435 0 0 1 .77 0l.845 1.6a.44.44 0 0 0 .18.18l1.6.847c.31.163.31.605 0 .768l-1.6.847a.436.436 0 0 0-.18.18l-.846 1.6a.435.435 0 0 1-.77 0z" stroke="#7B63AB" stroke-width="1.097" stroke-linecap="round" stroke-linejoin="round"/><path d="M1690.978 261.116l2.755 1.507a.395.395 0 0 1 0 .692l-2.755 1.507a.39.39 0 0 0-.156.156l-1.506 2.755a.393.393 0 0 1-.692 0l-1.506-2.755a.39.39 0 0 0-.16-.156l-2.753-1.507a.394.394 0 0 1 0-.692l2.755-1.507a.39.39 0 0 0 .158-.155l1.506-2.755a.393.393 0 0 1 .69 0l1.508 2.756a.39.39 0 0 0 .157.156" fill="#D15D64" style="mix-blend-mode:lighten"/><path d="M1637.057 223.722l1.36.743a.395.395 0 0 1 0 .692l-1.36.744a.397.397 0 0 0-.156.157l-.743 1.36a.395.395 0 0 1-.692 0l-.743-1.36a.393.393 0 0 0-.157-.156l-1.36-.743a.395.395 0 0 1 0-.692l1.36-.743a.395.395 0 0 0 .157-.157l.743-1.36a.395.395 0 0 1 .692 0l.744 1.36a.4.4 0 0 0 .157.157" fill="#7B63AB" style="mix-blend-mode:lighten"/><path d="M1611.877 48.645l1.3.71c.26.145.26.52 0 .662l-1.3.71a.38.38 0 0 0-.15.15l-.71 1.3a.377.377 0 0 1-.66 0l-.71-1.3a.386.386 0 0 0-.152-.15l-1.3-.71a.377.377 0 0 1 0-.662l1.3-.71a.39.39 0 0 0 .15-.15l.71-1.298a.376.376 0 0 1 .662 0l.71 1.298a.384.384 0 0 0 .15.15" fill="#D15D64" style="mix-blend-mode:lighten"/><path d="M1663.057 116.72l1.36.745a.395.395 0 0 1 0 .692l-1.36.743a.4.4 0 0 0-.156.157l-.743 1.36a.394.394 0 0 1-.692 0l-.743-1.36a.395.395 0 0 0-.157-.157l-1.36-.743a.395.395 0 0 1 0-.692l1.36-.744a.393.393 0 0 0 .157-.155l.743-1.36a.395.395 0 0 1 .692 0l.744 1.36c.037.066.092.12.157.156" fill="#FCD05C" style="mix-blend-mode:lighten"/><g transform="translate(1580 434)"><mask id="b" fill="#fff"><use xlink:href="#a"/></mask><path d="M4.667 1.79l1.36.743a.394.394 0 0 1 0 .692l-1.36.743a.4.4 0 0 0-.157.156l-.743 1.36a.394.394 0 0 1-.692 0l-.744-1.36a.397.397 0 0 0-.155-.156l-1.36-.743a.395.395 0 0 1 0-.692l1.36-.744a.39.39 0 0 0 .156-.157l.745-1.36a.394.394 0 0 1 .692 0l.743 1.36c.036.066.09.12.157.156" fill="#7B63AB" mask="url(#b)"/></g><path d="M1384.978 483.118l2.755 1.507a.394.394 0 0 1 0 .69l-2.755 1.507a.393.393 0 0 0-.157.156l-1.505 2.755a.393.393 0 0 1-.692 0l-1.506-2.755a.387.387 0 0 0-.158-.156l-2.755-1.507a.393.393 0 0 1 0-.69l2.755-1.507a.39.39 0 0 0 .157-.157l1.506-2.755a.393.393 0 0 1 .69 0l1.508 2.756c.038.067.092.122.16.158" fill="#FCD05C" style="mix-blend-mode:lighten"/><path d="M1273.877 338.646l1.3.71c.26.144.26.52 0 .66l-1.3.712a.38.38 0 0 0-.15.15l-.71 1.298a.377.377 0 0 1-.66 0l-.71-1.3a.386.386 0 0 0-.152-.148l-1.3-.712a.377.377 0 0 1 0-.66l1.3-.71a.39.39 0 0 0 .15-.15l.71-1.3a.376.376 0 0 1 .662 0l.71 1.3a.384.384 0 0 0 .15.15" fill="#D15D64" style="mix-blend-mode:lighten"/><path d="M1494.057 406.72l1.36.745a.395.395 0 0 1 0 .692l-1.36.743a.4.4 0 0 0-.156.157l-.743 1.36a.394.394 0 0 1-.692 0l-.743-1.36a.395.395 0 0 0-.157-.157l-1.36-.743a.395.395 0 0 1 0-.692l1.36-.744a.393.393 0 0 0 .157-.155l.743-1.36a.395.395 0 0 1 .692 0l.744 1.36c.037.066.092.12.157.156" fill="#FCD05C" style="mix-blend-mode:lighten"/><path stroke="#00A959" stroke-width="1.097" stroke-linecap="round" stroke-linejoin="round" d="M1712 450.524l1.762-.542 1.762.542-.543-1.762.544-1.762-1.762.543L1712 447l.542 1.762z"/><g transform="translate(1598 622)"><mask id="d" fill="#fff"><use xlink:href="#c"/></mask><path d="M7.648 3.813l2.755 1.507a.394.394 0 0 1 0 .69L7.648 7.52a.39.39 0 0 0-.157.157L5.985 10.43a.394.394 0 0 1-.69 0L3.785 7.675a.39.39 0 0 0-.157-.157L.873 6.01a.394.394 0 0 1 0-.69L3.63 3.813a.39.39 0 0 0 .156-.157L5.293.9a.394.394 0 0 1 .69 0l1.508 2.756a.39.39 0 0 0 .158.157" fill="#D15D64" mask="url(#d)"/></g><g stroke="#E98333" stroke-width="1.097" stroke-linecap="round" stroke-linejoin="round"><path d="M70.472 513L69 514.47M74.47 509L73 510.47M70.543 513.163a1.852 1.852 0 0 0 2.62-2.62 1.852 1.852 0 0 0-2.62 2.62z"/></g><path d="M239.057 1200.9l1.36-.743a.395.395 0 0 0 0-.692l-1.36-.743a.4.4 0 0 1-.156-.157l-.743-1.36a.394.394 0 0 0-.692 0l-.743 1.36a.395.395 0 0 1-.157.157l-1.36.743a.395.395 0 0 0 0 .692l1.36.744c.066.037.12.09.157.157l.743 1.36c.15.273.542.273.692 0l.744-1.36a.397.397 0 0 1 .157-.156" fill="#FCD05C" style="mix-blend-mode:lighten"/><path d="M1206.813 1132.906a2.907 2.907 0 1 0-5.815.003 2.907 2.907 0 0 0 5.815-.004M114.978 1035.822l2.756-1.506a.394.394 0 0 0 0-.692l-2.756-1.507a.4.4 0 0 1-.156-.157l-1.507-2.755a.393.393 0 0 0-.69 0l-1.508 2.755a.395.395 0 0 1-.157.157l-2.755 1.507a.394.394 0 0 0 0 .69l2.755 1.508c.066.036.12.09.157.157l1.507 2.753c.15.274.542.274.69 0l1.508-2.755a.397.397 0 0 1 .156-.156" fill="#D15D64" style="mix-blend-mode:lighten"/><path d="M206.057 793.9l1.36-.744a.395.395 0 0 0 0-.692l-1.36-.743a.4.4 0 0 1-.156-.156l-.743-1.36a.394.394 0 0 0-.692 0l-.743 1.36a.395.395 0 0 1-.157.158l-1.36.742a.395.395 0 0 0 0 .692l1.36.745c.066.037.12.09.157.156l.743 1.36c.15.273.542.273.692 0l.744-1.36a.397.397 0 0 1 .157-.156" fill="#FCD05C" style="mix-blend-mode:lighten"/><path d="M1455.978 1061.822l2.755-1.506a.395.395 0 0 0 0-.693l-2.755-1.507a.39.39 0 0 1-.156-.156l-1.506-2.755a.393.393 0 0 0-.692 0l-1.506 2.755a.39.39 0 0 1-.16.156l-2.753 1.507a.394.394 0 0 0 0 .692l2.755 1.507a.39.39 0 0 1 .158.157l1.506 2.753c.15.274.543.274.69 0l1.508-2.755a.39.39 0 0 1 .157-.156" fill="#D15D64" style="mix-blend-mode:lighten"/><path d="M1402.057 1085.9l1.36-.743a.395.395 0 0 0 0-.692l-1.36-.744a.397.397 0 0 1-.156-.155l-.743-1.36a.395.395 0 0 0-.692 0l-.743 1.36a.393.393 0 0 1-.157.156l-1.36.745a.395.395 0 0 0 0 .692l1.36.743c.066.036.12.09.157.157l.743 1.36c.15.273.542.273.692 0l.744-1.36a.4.4 0 0 1 .157-.157" fill="#7B63AB" style="mix-blend-mode:lighten"/><path stroke="#E98333" stroke-width="1.097" stroke-linecap="round" stroke-linejoin="round" d="M411 894.666l3.554.888-.887-3.554z"/><path fill="#00A959" style="mix-blend-mode:lighten" d="M522.226 745.225l2.018-1.104-2.018-1.102-1.104-2.018-1.104 2.018L518 744.12l2.018 1.105 1.104 2.018z"/><path d="M177.98 1225.822l2.754-1.506a.394.394 0 0 0 0-.692l-2.756-1.507a.397.397 0 0 1-.156-.156l-1.507-2.755a.393.393 0 0 0-.69 0l-1.507 2.756a.402.402 0 0 1-.16.157l-2.752 1.507a.393.393 0 0 0 0 .69l2.754 1.508c.066.036.12.09.157.157l1.508 2.754c.15.274.54.274.69 0l1.507-2.755a.397.397 0 0 1 .156-.158" fill="#E98333" style="mix-blend-mode:lighten"/><path d="M299.813 1325.906a2.907 2.907 0 1 0-5.815.003 2.907 2.907 0 0 0 5.815-.004" fill="#D15D64" style="mix-blend-mode:lighten"/><path d="M50.86 1174.232l-.847 1.6a.44.44 0 0 1-.18.18l-1.6.848a.434.434 0 0 0 0 .768l1.6.847c.076.04.14.104.18.18l.847 1.6c.163.31.605.31.77 0l.845-1.6a.44.44 0 0 1 .18-.18l1.6-.847a.434.434 0 0 0 0-.768l-1.6-.847a.436.436 0 0 1-.18-.18l-.846-1.6a.435.435 0 0 0-.77 0z" stroke="#7B63AB" stroke-width="1.097" stroke-linecap="round" stroke-linejoin="round"/><path d="M1690.978 1110.822l2.755-1.506a.395.395 0 0 0 0-.693l-2.755-1.507a.39.39 0 0 1-.156-.156l-1.506-2.755a.393.393 0 0 0-.692 0l-1.506 2.755a.39.39 0 0 1-.16.156l-2.753 1.507a.394.394 0 0 0 0 .692l2.755 1.507a.39.39 0 0 1 .158.157l1.506 2.753c.15.274.543.274.69 0l1.508-2.755a.39.39 0 0 1 .157-.156" fill="#D15D64" style="mix-blend-mode:lighten"/><path d="M1637.057 1155.9l1.36-.743a.395.395 0 0 0 0-.692l-1.36-.744a.397.397 0 0 1-.156-.155l-.743-1.36a.395.395 0 0 0-.692 0l-.743 1.36a.393.393 0 0 1-.157.156l-1.36.745a.395.395 0 0 0 0 .692l1.36.743c.066.036.12.09.157.157l.743 1.36c.15.273.542.273.692 0l.744-1.36a.4.4 0 0 1 .157-.157" fill="#7B63AB" style="mix-blend-mode:lighten"/><path d="M1611.877 1349.727l1.3-.71a.377.377 0 0 0 0-.66l-1.3-.712a.38.38 0 0 1-.15-.15l-.71-1.3a.377.377 0 0 0-.66 0l-.71 1.3a.386.386 0 0 1-.152.15l-1.3.71a.377.377 0 0 0 0 .662l1.3.71a.39.39 0 0 1 .15.15l.71 1.3a.376.376 0 0 0 .662 0l.71-1.3a.384.384 0 0 1 .15-.15" fill="#D15D64" style="mix-blend-mode:lighten"/><path d="M1663.057 1249.9l1.36-.743a.395.395 0 0 0 0-.692l-1.36-.743a.4.4 0 0 1-.156-.157l-.743-1.36a.394.394 0 0 0-.692 0l-.743 1.36a.395.395 0 0 1-.157.157l-1.36.743a.395.395 0 0 0 0 .692l1.36.744c.066.037.12.09.157.157l.743 1.36c.15.273.542.273.692 0l.744-1.36a.397.397 0 0 1 .157-.156" fill="#FCD05C" style="mix-blend-mode:lighten"/><g transform="matrix(1 0 0 -1 1587 986)"><mask id="f" fill="#fff"><use xlink:href="#e"/></mask><path d="M4.667 1.79l1.36.743a.394.394 0 0 1 0 .692l-1.36.743a.4.4 0 0 0-.157.156l-.743 1.36a.394.394 0 0 1-.692 0l-.744-1.36a.397.397 0 0 0-.155-.156l-1.36-.743a.395.395 0 0 1 0-.692l1.36-.744a.39.39 0 0 0 .156-.157l.745-1.36a.394.394 0 0 1 .692 0l.743 1.36c.036.066.09.12.157.156" fill="#7B63AB" mask="url(#f)"/></g><g stroke="#7B63AB" stroke-width="1.097" stroke-linecap="round" stroke-linejoin="round"><path d="M1164 915l2.78-2.78M1156 923l2.78-2.78M1161.607 912.906c0-.997-5.483 4.486-4.486 4.486-.996 0 4.487 5.484 4.487 4.487 0 .996 5.483-4.488 4.486-4.488.997 0-4.486-5.483-4.486-4.486z"/></g><path d="M1384.978 770.822l2.755-1.507a.394.394 0 0 0 0-.692l-2.755-1.506a.393.393 0 0 1-.157-.156l-1.505-2.755a.393.393 0 0 0-.692 0l-1.506 2.755a.387.387 0 0 1-.158.157l-2.755 1.507a.393.393 0 0 0 0 .69l2.755 1.508a.39.39 0 0 1 .157.157l1.506 2.754c.15.274.543.274.69 0l1.508-2.755a.395.395 0 0 1 .16-.158" fill="#FCD05C" style="mix-blend-mode:lighten"/><path d="M1273.877 962.727l1.3-.71a.377.377 0 0 0 0-.66l-1.3-.712a.38.38 0 0 1-.15-.15l-.71-1.3a.377.377 0 0 0-.66 0l-.71 1.3a.386.386 0 0 1-.152.15l-1.3.71a.377.377 0 0 0 0 .662l1.3.71a.39.39 0 0 1 .15.15l.71 1.3a.376.376 0 0 0 .662 0l.71-1.3a.384.384 0 0 1 .15-.15" fill="#D15D64" style="mix-blend-mode:lighten"/><path d="M1494.057 873.9l1.36-.744a.395.395 0 0 0 0-.692l-1.36-.743a.4.4 0 0 1-.156-.156l-.743-1.36a.394.394 0 0 0-.692 0l-.743 1.36a.395.395 0 0 1-.157.158l-1.36.742a.395.395 0 0 0 0 .692l1.36.745c.066.037.12.09.157.156l.743 1.36c.15.273.542.273.692 0l.744-1.36a.397.397 0 0 1 .157-.156" fill="#FCD05C" style="mix-blend-mode:lighten"/><path stroke="#00A959" stroke-width="1.097" stroke-linecap="round" stroke-linejoin="round" d="M1712 812l1.762.542 1.762-.542-.543 1.762.544 1.762-1.762-.543-1.762.544.542-1.762z"/><g stroke="#E98333" stroke-width="1.097" stroke-linecap="round" stroke-linejoin="round"><path d="M70.472 721L69 719.53M74.47 725L73 723.53M70.543 720.837a1.852 1.852 0 0 1 2.62 2.62 1.852 1.852 0 0 1-2.62-2.62z"/></g></g></svg>