<svg xmlns="http://www.w3.org/2000/svg" xmlns:xlink="http://www.w3.org/1999/xlink" width="122" height="122"><defs><circle id="a" cx="60" cy="60" r="60"/><linearGradient id="b" x1="45.117%" x2="0%" y1="168.048%" y2="5.569%"><stop offset="0%" stop-color="#C4D6EB" stop-opacity=".676"/><stop offset="100%" stop-color="#91ACD2" stop-opacity=".3"/></linearGradient><linearGradient id="d" x1="38.471%" x2="16.259%" y1="81.515%" y2="6.036%"><stop offset="0%" stop-color="#76E1FF"/><stop offset="100%" stop-color="#637BFF" stop-opacity="0"/></linearGradient><linearGradient id="e" x1="16.259%" x2="38.471%" y1="6.036%" y2="81.515%"><stop offset="0%" stop-color="#76E1FF"/><stop offset="100%" stop-color="#637BFF" stop-opacity="0"/></linearGradient><linearGradient id="f" x1="0%" y1="50%" y2="50%"><stop offset="0%" stop-color="#5B79A2"/><stop offset="100%" stop-color="#2E4469"/></linearGradient><linearGradient id="g" x1="85.355%" x2="14.645%" y1="85.355%" y2="14.645%"><stop offset="0%" stop-color="#2F4568"/><stop offset="100%" stop-color="#18222F"/></linearGradient><linearGradient id="h" x1="50%" x2="50%" y1="-48.381%" y2="62.836%"><stop offset="0%" stop-color="#76E1FF"/><stop offset="100%" stop-color="#637BFF" stop-opacity="0"/></linearGradient><linearGradient id="i" x1="67.252%" x2="-34.666%" y1="22.034%" y2="197.643%"><stop offset="0%" stop-color="#76E1FF"/><stop offset="100%" stop-color="#637BFF" stop-opacity="0"/></linearGradient><filter id="j" width="220%" height="220%" x="-60%" y="-60%" filterUnits="objectBoundingBox"><feGaussianBlur in="SourceGraphic" stdDeviation="2"/></filter><linearGradient id="k" x1="50%" x2="50%" y1="0%" y2="97.483%"><stop offset="0%" stop-color="#21C8F6"/><stop offset="100%" stop-color="#637BFF"/></linearGradient><path id="l" d="M54.957 48.086s-1.504-2.208-3.016-2.82c-.454-.185-.909-.225-1.324-.018-.556.278-.681.942-.59 1.726.204 1.75 1.488 4.099 1.488 4.099a8.42 8.42 0 0 1 .802-.63c2.298-1.597 5.319-2.15 6.413-2.305.266-.038.418-.052.418-.052s-.147-.44-.468-.996a5.807 5.807 0 0 0-.727-1.008c-.36-.395-.806-.757-1.35-.983a1.16 1.16 0 0 0-.442-.099c-1.327 0-1.204 3.086-1.204 3.086"/><path id="n" d="M77.741 46.07c-.557.189-1.027.52-1.413.89A6.247 6.247 0 0 0 75 48.878s.15.025.414.08c1.01.214 3.671.888 5.798 2.4a8.75 8.75 0 0 1 1.2 1.016s1.526-2.39 1.788-4.138c.089-.59.033-1.108-.274-1.435-.554-.591-1.466-.345-2.085-.014-1.37.733-2.66 2.375-2.66 2.375S79.524 46 78.13 46c-.118 0-.247.022-.39.07"/><linearGradient id="p" x1="24.379%" x2="84.171%" y1="5.536%" y2="97.907%"><stop offset="0%" stop-color="#76E1FF"/><stop offset="100%" stop-color="#637BFF" stop-opacity="0"/></linearGradient><circle id="q" cx="60" cy="60" r="60"/></defs><g fill="none" fill-rule="evenodd" transform="translate(1 1)"><mask id="c" fill="#fff"><use xlink:href="#a"/></mask><use fill="#000" fill-opacity=".152" xlink:href="#a"/><rect width="119.5" height="119.5" x=".25" y=".25" fill="#24385A" stroke="url(#b)" stroke-width=".5" mask="url(#c)" rx="1.4"/><g fill-rule="nonzero" stroke-width=".665" mask="url(#c)"><path stroke="url(#d)" d="M73.915 3.133c0-.327-.127-.617-.38-.868L71.64.378A1.203 1.203 0 0 0 70.766 0a1.2 1.2 0 0 0-.872.378L52.218 17.964c-.254.251-.38.54-.38.868 0 .327.127.616.38.868l17.676 17.586a1.2 1.2 0 0 0 .872.377c.33 0 .62-.126.873-.377l1.896-1.886c.253-.252.38-.541.38-.869 0-.326-.127-.616-.38-.867L58.628 18.832 73.536 4c.253-.252.379-.541.379-.868z" transform="rotate(-180 74.377 28.831)"/><path stroke="url(#e)" d="M22.077 3.133c0-.327-.127-.617-.38-.868L19.801.378A1.203 1.203 0 0 0 18.928 0c-.329 0-.62.126-.872.378L.379 17.964c-.253.251-.379.54-.379.868 0 .327.127.616.38.868l17.675 17.586a1.2 1.2 0 0 0 .873.377c.33 0 .62-.126.872-.377l1.897-1.886c.253-.252.38-.541.38-.869 0-.326-.127-.616-.38-.867L6.79 18.832 21.697 4c.254-.252.38-.541.38-.868z" transform="translate(23 20)"/><path stroke="url(#e)" d="M40.777 5.678l-1.7-.434a.816.816 0 0 0-.645.064.844.844 0 0 0-.425.498l-10.23 32.957a.718.718 0 0 0 .068.625.882.882 0 0 0 .535.396l1.7.434c.22.068.435.047.645-.064a.845.845 0 0 0 .425-.497L41.38 6.699a.719.719 0 0 0-.068-.626.881.881 0 0 0-.535-.395z" opacity=".238" transform="rotate(8 -96.928 197.189)"/></g><g mask="url(#c)"><g transform="translate(-6 37)"><path fill="url(#f)" d="M87.037 18.047s16.226 3.2 21.913 7.68c0 .779-5.205.88-6.563.894l.488.349c2.957 1.281 13.147 5.814 15.952 8.613 0 .772-3.994.658-5.104.61l.506.514c2.768 1.885 12.112 8.573 16.67 15.902l.3.299-7.409-2.044-.007.387c.661 1.744 3.134 8.401 4.422 13.803-.65 1.299-3.552-.016-5.102-.84-.068.83-.142 1.678-.224 2.543 1.072 4.618 2.92 13.601 3.132 21.395-.898.598-5.089-4.48-5.089-4.48s.599 8.363.599 11.052c-.456-.228-2.103-2.67-2.865-3.824-.2.68-.406 1.35-.621 2.008-.156 19.25-106.492 14.687-106.345-4.924a95.21 95.21 0 0 1-.632-2.662c-.949 1.78-2.192 4.107-3.276 6.116-2.296-8.247-.542-20.36.4-25.556-.042-.476-.083-.946-.121-1.41-1.013 1.684-2.998 4.408-3.87 1.578 0-7.169 3.138-17.013 3.138-17.013S2.394 54.997 0 53.206c3.048-6.083 11.32-12.165 15.605-15.03.443-.476.903-.96 1.385-1.452-1.82.294-4.931.557-4.718-1.14 4.043-3.323 12.241-6.834 15.44-8.137l.726-.526h-9.282c4.49-5.078 25.05-8.873 25.05-8.873s2.51-6.643 5.823-9.039c7.77-5.619 23.858-5.065 31.186 0 3.364 2.325 5.822 9.039 5.822 9.039z"/><path fill="url(#g)" stroke="url(#h)" d="M108.06 25.692c.206.142.4.285.58.427l-.19-.392c0-.134.042-.182.038-.18a2.018 2.018 0 0 1-.428.145zm9.973 9.841c.163.139.31.274.441.404l-.147-.354c0-.092.034-.149.053-.167a1.4 1.4 0 0 1-.347.117zm11.903 16.508c.186.277.366.554.539.832l.071.09.3.299.353-.354.133-.482-1.396-.385zm-2.27 12.91l.053.22.04-.34a.397.397 0 0 1-.093.12zm-2.174 22.627c.007.197.014.393.019.588l.223-.43c-.007.004-.094-.05-.242-.158zm-4.5 5.815c.02.54.029.987.029 1.33l.723-.447c-.102-.05-.376-.38-.752-.883zM7.954 90.065L7.342 91.2l.922.103a24.832 24.832 0 0 1-.31-1.24zM4.691 65.973a6.464 6.464 0 0 1-.023-.07l.022.147v-.077zM.676 52.991a1.139 1.139 0 0 1-.376-.185l.147.624c.073-.146.15-.293.229-.44zm12.095-17.169a.577.577 0 0 1-.003-.177l-.179.324.182-.147zm7.657-9.4h-1.272l.375.83c.245-.276.545-.554.897-.83z"/><path fill="#24385A" stroke="url(#b)" stroke-width=".5" d="M77.454 29.326c0-6.67-5.418-12.076-12.102-12.076S53.25 22.657 53.25 29.326c0 6.67 5.418 12.077 12.102 12.077s12.102-5.407 12.102-12.077z"/><path fill="#000" fill-opacity=".152" stroke="url(#d)" stroke-width=".605" d="M77.704 29.326c0 6.808-5.53 12.327-12.352 12.327S53 36.134 53 29.326C53 22.52 58.53 17 65.352 17s12.352 5.519 12.352 12.326"/><path fill="#76E2FF" d="M63.154 23.226s-.504.055-1.227.275c-1.58.48-4.208 1.743-4.902 4.913-.034.464-.037.935.012 1.397.153 1.466.923 2.724 2.042 3.707 1.5 1.317 3.625 2.143 5.74 2.319 3.266.27 6.504-1.01 7.36-4.43.089-.35.158-.688.218-1.018.192-1.933-.132-3.478-.854-4.645a5.14 5.14 0 0 0-.797-.99C69.531 23.58 67.736 23 65.596 23c-.772 0-1.59.076-2.442.226"/><path fill="url(#f)" d="M64.514 27.09s-1.12.124-1.865.937c-.402.44-.695 1.078-.643 2.008.035.627.351 1.163.822 1.578.4.352.914.616 1.462.773 1.137.325 2.427.191 3.189-.573a2.21 2.21 0 0 0 .576-1.043 5.02 5.02 0 0 0 .167-1.351c-.02-.749-.266-1.32-.678-1.719-.446-.43-1.086-.66-1.849-.695a5.624 5.624 0 0 0-1.181.085"/><path fill="#ECECEC" d="M67.796 29.896a.897.897 0 1 1-1.794-.001.897.897 0 0 1 1.794.001"/><path stroke="url(#i)" stroke-width="2" d="M63 104.141l49.365-65.092L100.572 3l-28.36 15.35"/><circle cx="72" cy="18" r="5" fill="#328AF1" filter="url(#j)"/><g transform="translate(108 35)"><circle cx="4" cy="4" r="4" fill="url(#k)"/><path fill="#FFF" fill-opacity=".2" d="M1.524 6.857a3.81 3.81 0 1 1 5.334-5.334 3.81 3.81 0 0 0-5.334 5.334z"/></g><g transform="translate(97)"><circle cx="3.5" cy="3.5" r="3.5" fill="url(#k)"/><path fill="#FFF" fill-opacity=".2" d="M1.333 6A3.333 3.333 0 1 1 6 1.333 3.333 3.333 0 0 0 1.333 6z"/></g><circle cx="72.5" cy="18.5" r="2.5" fill="url(#k)"/><path fill="#FFF" fill-opacity=".2" d="M75.952 20.286a2.38 2.38 0 1 1 3.333-3.333 2.38 2.38 0 0 0-3.333 3.333z"/><path fill="#1C2737" fill-rule="nonzero" d="M78.274 65.998c-2.152.87-4.592.723-6.695-.403a1.94 1.94 0 0 1-.832-2.527 1.748 1.748 0 0 1 2.424-.783c1.16.621 2.507.703 3.694.224 1.186-.48 2.098-1.474 2.501-2.727a1.748 1.748 0 0 1 2.288-1.121c.951.352 1.469 1.425 1.156 2.396-.73 2.27-2.383 4.071-4.536 4.941z"/><mask id="m" fill="#fff"><use xlink:href="#l"/></mask><path d="M54.957 48.086s-1.504-2.208-3.016-2.82c-.454-.185-.909-.225-1.324-.018-.556.278-.681.942-.59 1.726.204 1.75 1.488 4.099 1.488 4.099a8.42 8.42 0 0 1 .802-.63c2.298-1.597 5.319-2.15 6.413-2.305.266-.038.418-.052.418-.052s-.147-.44-.468-.996a5.807 5.807 0 0 0-.727-1.008c-.36-.395-.806-.757-1.35-.983a1.16 1.16 0 0 0-.442-.099c-1.327 0-1.204 3.086-1.204 3.086" mask="url(#m)"/><mask id="o" fill="#fff"><use xlink:href="#n"/></mask><path d="M77.741 46.07c-.557.189-1.027.52-1.413.89A6.247 6.247 0 0 0 75 48.878s.15.025.414.08c1.01.214 3.671.888 5.798 2.4a8.75 8.75 0 0 1 1.2 1.016s1.526-2.39 1.788-4.138c.089-.59.033-1.108-.274-1.435-.554-.591-1.466-.345-2.085-.014-1.37.733-2.66 2.375-2.66 2.375S79.524 46 78.13 46c-.118 0-.247.022-.39.07" mask="url(#o)"/></g></g><use stroke="url(#p)" xlink:href="#q"/></g></svg>